<svg style="display:none;">
  <symbol xmlns="http://www.w3.org/2000/svg" viewBox="0 0 7.282 11.88" id="arrow">
     <path fill-rule="evenodd" id="arrow" data-name="Arrow Icon" class="cls-1" d="M502.944,2188.99l-3.885-3.89a0.994,0.994,0,0,1,0-1.41l0.353-.35a1,1,0,0,1,1.414,0l4.573,4.57c0.008,0.01.016,0.01,0.023,0.02l0.354,0.35a1.009,1.009,0,0,1,0,1.42l-0.354.35c-0.007.01-.017,0.01-0.023,0.02l-4.573,4.57a1,1,0,0,1-1.414,0l-0.353-.35a1.006,1.006,0,0,1,0-1.42Z" transform="translate(-498.781 -2183.06)"/>
  </symbol>
  <symbol xmlns="http://www.w3.org/2000/svg" viewBox="0 0 16 13.031" id="cart">
     <path fill-rule="evenodd" id="cart" data-name="cart" class="cls-1" d="M1109.5,80.183a1.4,1.4,0,1,1-1.39,1.4A1.394,1.394,0,0,1,1109.5,80.183Zm5-.031a1.432,1.432,0,1,1-1.42,1.432A1.422,1.422,0,0,1,1114.5,80.152Zm2.8-9.1a1.007,1.007,0,0,0-1.26.66s-0.99,2.513-1.5,4.31a1.315,1.315,0,0,1-1.48,1.029h-2.12a1.472,1.472,0,0,1-1.48-1.038c-0.91-1.8-2.44-5.056-2.44-5.056a1.632,1.632,0,0,0-1.36-.956H1103a1.007,1.007,0,0,0,0,2.014h2.25l2.8,5.56a2.328,2.328,0,0,0,2.08,1.491h3.84a1.962,1.962,0,0,0,2.18-1.491l1.8-5.26a1.007,1.007,0,0,0-.65-1.262c-0.53-.166.52,0.166,0,0s0.52,0.166,0,0S1117.82,71.22,1117.3,71.054Z" transform="translate(-1102 -70)"/>
  </symbol>
  <symbol xmlns="http://www.w3.org/2000/svg" viewBox="0 0 9 19.19" id="facebook">
     <path fill-rule="evenodd" id="facebook" data-name="facebook" class="cls-1" d="M940.158,2179.47v3.09s-2.271-.23-2.84.65c-0.31.47-.126,1.87-0.154,2.87h3.013c-0.255,1.17-.437,1.97-0.624,2.98h-2.4v9.59h-4.173c0-2.96,0-6.41,0-9.55H931.2v-3.02h1.756c0.09-2.21.124-4.39,1.218-5.5C935.4,2179.32,936.575,2179.47,940.158,2179.47Z" transform="translate(-931.188 -2179.47)"/>
  </symbol>
  <symbol xmlns="http://www.w3.org/2000/svg" viewBox="0 0 19.21 7.82" id="fiskr">
      <path fill-rule="evenodd" id="fiskr" data-name="Flickr copy" class="cls-1" d="M1110.36,2188.97a4,4,0,1,1-3.99-3.9A3.953,3.953,0,0,1,1110.36,2188.97Zm11.22,0a4,4,0,1,1-4-3.9A3.955,3.955,0,0,1,1121.58,2188.97Z" transform="translate(-1102.38 -2185.06)"/>
  </symbol>
  <symbol xmlns="http://www.w3.org/2000/svg" viewBox="0 0 19.18 16.28" id="google__plus">
     <path fill-rule="evenodd" id="google__plus" data-name="G+ copy" class="cls-1" d="M1024.94,2182.24h-1.35a3.646,3.646,0,0,1,1.56,3.1c-0.07,1.49-1.01,2.09-1.88,2.79a2.355,2.355,0,0,0-.58.7c-0.31.82,0.53,1.29,0.96,1.61,0.39,0.29.73,0.55,1.03,0.81a3.023,3.023,0,0,1,1.24,2.45,3.51,3.51,0,0,1-1.62,2.85,7.025,7.025,0,0,1-3.32,1.15,8,8,0,0,1-3.88-.51,2.832,2.832,0,0,1-1.93-2.51,2.74,2.74,0,0,1,.66-1.75c1.77-1.97,3.03-1.66,5.34-1.83a6,6,0,0,1-.58-0.91,1.765,1.765,0,0,1,.15-1.36,4.066,4.066,0,0,1-3.45-1,3.225,3.225,0,0,1-.92-3,3.813,3.813,0,0,1,1.67-2.4,5.563,5.563,0,0,1,3.19-.96h5.14m-7.96,2.01a4.45,4.45,0,0,0,.25,2.8,3.378,3.378,0,0,0,1.5,1.8,2.22,2.22,0,0,0,2.81-.89,2.555,2.555,0,0,0,.19-0.86,4.4,4.4,0,0,0-1.8-3.9,2.2,2.2,0,0,0-1.26-.22A1.952,1.952,0,0,0,1018.41,2183.48Zm-0.16,8.93a2.169,2.169,0,0,0-.98,1.12,2.32,2.32,0,0,0-.04,1.33c0.33,1.15,1.69,1.81,3.12,1.94,1.54,0.13,3.1-.11,3.77-1.2a2.081,2.081,0,0,0,.01-2.05,4.755,4.755,0,0,0-1.61-1.42,2.117,2.117,0,0,0-.62-0.42,3.369,3.369,0,0,0-.71,0A6.128,6.128,0,0,0,1018.25,2192.41Zm11.93-10.92h1.16c0,1-.02,1.98-0.02,2.98,0.98,0.04,2-.01,3.02,0v1.19h-2.98c0,1.03-.02,1.97-0.02,3h-1.14c0-1.02-.02-1.98-0.02-3-0.99-.04-1.99.01-3.01,0v-1.19h2.99c0-.99.02-1.93,0.02-2.92C1030.18,2181.52,1030.16,2181.5,1030.18,2181.49Z" transform="translate(-1015.16 -2181.47)"/>
  </symbol>
  <symbol xmlns="http://www.w3.org/2000/svg" viewBox="0 0 16 15.031" id="in_cart">
     <path fill-rule="evenodd" id="in_cart" data-name="in_cart" class="cls-1" d="M885.5,456.191a1.4,1.4,0,1,1-1.391,1.4A1.395,1.395,0,0,1,885.5,456.191Zm5-.031a1.428,1.428,0,1,1-1.422,1.428A1.425,1.425,0,0,1,890.5,456.16Zm2.8-9.07a1,1,0,0,0-1.252.658s-1,2.5-1.5,4.3a1.315,1.315,0,0,1-1.477,1.026h-2.125a1.469,1.469,0,0,1-1.477-1.035c-0.916-1.794-2.44-5.041-2.44-5.041a1.631,1.631,0,0,0-1.363-.953H879a1,1,0,0,0,0,2.008h2.248l2.8,5.543a2.34,2.34,0,0,0,2.081,1.487h3.843a1.95,1.95,0,0,0,2.175-1.487l1.808-5.245a1,1,0,0,0-.657-1.258h0Zm-6.3-.037v-2.036a1,1,0,1,1,2,0v2.036h2.536L888,450.6l-3.535-3.55H887Z" transform="translate(-878 -444)"/>
  </symbol>
  <symbol xmlns="http://www.w3.org/2000/svg" viewBox="0 0 17.97 18.59" id="leakedin">
     <path fill-rule="evenodd" id="leakedin" data-name="leakedin" class="cls-1" d="M1059.3,2185.43h3.46v13.04h-3.46v-13.04Zm16.38,0.75a4.336,4.336,0,0,1,1.28,3.51v8.78h-3.49v-7.93a3.548,3.548,0,0,0-.28-1.58,1.907,1.907,0,0,0-1.9-1,2.36,2.36,0,0,0-2.36,1.47,5.115,5.115,0,0,0-.33,1.98v7.06h-3.07v-13.2h2.96v2.09a5.941,5.941,0,0,1,1.24-1.45,4.267,4.267,0,0,1,2.66-.79A4.963,4.963,0,0,1,1075.68,2186.18Zm-12.47-4.2a2.11,2.11,0,1,1-2.11-2.11A2.119,2.119,0,0,1,1063.21,2181.98Z" transform="translate(-1059 -2179.88)"/>
  </symbol>
  <symbol xmlns="http://www.w3.org/2000/svg" viewBox="0 0 13.939 14" id="search">
     <path fill-rule="evenodd" id="search" data-name="search" class="cls-1" d="M1006.68,27.279l-2.78-2.772a6.005,6.005,0,1,0-1.42,1.409l2.78,2.777A1,1,0,1,0,1006.68,27.279Zm-7.649-2.265a4,4,0,1,1,4-4A4,4,0,0,1,999.031,25.014Z" transform="translate(-993.031 -15)"/>
  </symbol>
  <symbol xmlns="http://www.w3.org/2000/svg" viewBox="0 0 16 13" id="share">
     <path fill-rule="evenodd" id="share" data-name="share" class="cls-1" d="M839.973,453s1.539-2.436,6.987-2.436V453L852,449.02,846.96,445s0,2.344,0,2.344C846.831,447.343,839.973,447.633,839.973,453ZM849,454c-0.021,0,0,.447,0,1h-0.01v2h-12V447h4v0l0.01,0c0.553,0,1,.021,1,0a1,1,0,0,0-1-1l-0.01,0h-3a2,2,0,0,0-2,2v8a2,2,0,0,0,2,2h10a2,2,0,0,0,1.991-1.9c0-.033.019-0.062,0.019-0.1v-1A1,1,0,0,0,849,454Z" transform="translate(-836 -445)"/>
  </symbol>
  <symbol xmlns="http://www.w3.org/2000/svg" viewBox="0 0 16 16" id="star">
     <path fill-rule="evenodd" id="star" data-name="star" class="cls-1" d="M1027.93,73.969a1.172,1.172,0,0,0-.92-0.779l-4.16-.638-1.81-3.871a1.144,1.144,0,0,0-2.08,0l-1.81,3.871-4.16.638a1.172,1.172,0,0,0-.92.779,1.184,1.184,0,0,0,.27,1.178l3.05,3.139-0.71,4.355a1.166,1.166,0,0,0,.47,1.135,1.162,1.162,0,0,0,1.23.067l3.62-2.014,3.62,2.014a1.162,1.162,0,0,0,1.23-.067,1.166,1.166,0,0,0,.47-1.135l-0.71-4.355,3.05-3.139A1.184,1.184,0,0,0,1027.93,73.969Zm-4.14,3.507a1.145,1.145,0,0,0-.31,1l0.7,4.355-3.62-2.014a1.157,1.157,0,0,0-1.12,0l-3.62,2.014,0.71-4.355a1.181,1.181,0,0,0-.32-1l-3.04-3.139,4.15-.639a1.149,1.149,0,0,0,.87-0.653l1.81-3.871,1.81,3.871a1.149,1.149,0,0,0,.87.653l4.15,0.639Z" transform="translate(-1012 -68)"/>
  </symbol>
  <symbol xmlns="http://www.w3.org/2000/svg" viewBox="0 0 19.188 15.9" id="twitter">
    <path fill-rule="evenodd" id="twitter" data-name="twitter" class="cls-1" d="M989.952,2183.12c-0.092.72-1.138,1.45-1.772,2,0.626,9.21-9.824,14.96-17.417,10.29,2.129,0.02,4.527-.57,5.794-1.77-1.842-.3-3.147-1.13-3.653-2.77a4.842,4.842,0,0,0,1.661-.11c-1.685-.64-3.018-1.63-3.1-3.87a5.762,5.762,0,0,0,1.66.33,4.492,4.492,0,0,1-1.217-5.31,11.849,11.849,0,0,0,8.3,4.2c-0.957-4.07,4.437-6.59,6.864-3.65a13.712,13.712,0,0,0,2.545-.89,5.288,5.288,0,0,1-1.66,2.11A6.106,6.106,0,0,0,989.952,2183.12Z" transform="translate(-970.75 -2181.19)"/>
  </symbol>
  <symbol xmlns="http://www.w3.org/2000/svg" viewBox="0 0 16 10" id="view">
     <path fill-rule="evenodd" id="view" data-name="view" class="cls-1" d="M768.983,451.89c-0.006-.021,0-0.043-0.011-0.064a0.239,0.239,0,0,0-.013-0.021c0-.012,0-0.025-0.01-0.037a9.008,9.008,0,0,0-15.9,0,0.259,0.259,0,0,0-.011.037c0,0.008-.01.013-0.013,0.022a0.449,0.449,0,0,0-.01.064A0.476,0.476,0,0,0,753,452a0.484,0.484,0,0,0,.018.112,0.472,0.472,0,0,0,.01.064c0,0.008.01,0.013,0.013,0.021a0.259,0.259,0,0,0,.011.037,9.008,9.008,0,0,0,15.9,0,0.329,0.329,0,0,0,.01-0.037,0.148,0.148,0,0,0,.013-0.021c0.008-.021,0-0.043.011-0.064A0.377,0.377,0,0,0,768.983,451.89ZM761,456a8.258,8.258,0,0,1-7-4,8.124,8.124,0,0,1,14,0A8.261,8.261,0,0,1,761,456Zm0-6h0a2,2,0,0,0-2,2,0.25,0.25,0,1,0,.5,0,1.5,1.5,0,0,1,1.5-1.5h0A0.25,0.25,0,0,0,761,450Zm-0.012-1.5a3.5,3.5,0,1,0,3.5,3.5A3.5,3.5,0,0,0,760.988,448.5Zm0,6.51a3,3,0,1,1,3-3A3.008,3.008,0,0,1,760.988,455.007Z" transform="translate(-753 -447)"/>
  </symbol>
</svg>


